<mxfile host="app.diagrams.net" agent="Mozilla/5.0 (Windows NT 10.0; Win64; x64) AppleWebKit/537.36 (KHTML, like Gecko) Chrome/129.0.0.0 Safari/537.36" version="24.7.17">
  <diagram name="Сторінка-1" id="aEiLpgcZA9OJu_x8Jckk">
    <mxGraphModel dx="983" dy="390" grid="1" gridSize="10" guides="1" tooltips="1" connect="1" arrows="1" fold="1" page="1" pageScale="1" pageWidth="827" pageHeight="1169" math="0" shadow="0">
      <root>
        <mxCell id="0" />
        <mxCell id="1" parent="0" />
        <mxCell id="zrZ9BkI-CMczF0ap-1St-2" style="edgeStyle=orthogonalEdgeStyle;rounded=0;orthogonalLoop=1;jettySize=auto;html=1;" edge="1" parent="1" source="zrZ9BkI-CMczF0ap-1St-1" target="zrZ9BkI-CMczF0ap-1St-3">
          <mxGeometry relative="1" as="geometry">
            <mxPoint x="412" y="360" as="targetPoint" />
          </mxGeometry>
        </mxCell>
        <mxCell id="zrZ9BkI-CMczF0ap-1St-1" value="Введення даних від користувача" style="rounded=0;whiteSpace=wrap;html=1;" vertex="1" parent="1">
          <mxGeometry x="329" y="170" width="169" height="80" as="geometry" />
        </mxCell>
        <mxCell id="zrZ9BkI-CMczF0ap-1St-4" style="edgeStyle=orthogonalEdgeStyle;rounded=0;orthogonalLoop=1;jettySize=auto;html=1;" edge="1" parent="1" source="zrZ9BkI-CMczF0ap-1St-3">
          <mxGeometry relative="1" as="geometry">
            <mxPoint x="412" y="470" as="targetPoint" />
          </mxGeometry>
        </mxCell>
        <mxCell id="zrZ9BkI-CMczF0ap-1St-3" value="Обчислення складних відсотків депозиту за формулою" style="rounded=0;whiteSpace=wrap;html=1;" vertex="1" parent="1">
          <mxGeometry x="329" y="300" width="169" height="80" as="geometry" />
        </mxCell>
        <mxCell id="zrZ9BkI-CMczF0ap-1St-6" value="Виведення даних" style="rounded=0;whiteSpace=wrap;html=1;" vertex="1" parent="1">
          <mxGeometry x="329" y="440" width="169" height="80" as="geometry" />
        </mxCell>
        <mxCell id="zrZ9BkI-CMczF0ap-1St-8" style="edgeStyle=orthogonalEdgeStyle;rounded=0;orthogonalLoop=1;jettySize=auto;html=1;" edge="1" parent="1" source="zrZ9BkI-CMczF0ap-1St-7" target="zrZ9BkI-CMczF0ap-1St-1">
          <mxGeometry relative="1" as="geometry" />
        </mxCell>
        <mxCell id="zrZ9BkI-CMczF0ap-1St-7" value="Початок" style="ellipse;whiteSpace=wrap;html=1;" vertex="1" parent="1">
          <mxGeometry x="354" y="20" width="120" height="80" as="geometry" />
        </mxCell>
        <mxCell id="zrZ9BkI-CMczF0ap-1St-10" style="edgeStyle=orthogonalEdgeStyle;rounded=0;orthogonalLoop=1;jettySize=auto;html=1;entryX=0.5;entryY=1;entryDx=0;entryDy=0;" edge="1" parent="1" source="zrZ9BkI-CMczF0ap-1St-9" target="zrZ9BkI-CMczF0ap-1St-6">
          <mxGeometry relative="1" as="geometry" />
        </mxCell>
        <mxCell id="zrZ9BkI-CMczF0ap-1St-9" value="Кінець" style="ellipse;whiteSpace=wrap;html=1;" vertex="1" parent="1">
          <mxGeometry x="354" y="610" width="120" height="80" as="geometry" />
        </mxCell>
      </root>
    </mxGraphModel>
  </diagram>
</mxfile>
